<svg xmlns="http://www.w3.org/2000/svg" viewBox="0 0 900 620"><style>.s{stroke:#0b0b0b;stroke-width:8;stroke-linecap:round;stroke-linejoin:round}.f{fill:#0b0b0b}.w{fill:#fff}.r{fill:#e21b1b}.g{fill:#c4a071}.t{font:700 34px Arial, sans-serif;fill:#0b0b0b}</style><rect width="900" height="620" fill="#fff"/><line x1="450" y1="90" x2="450" y2="530" stroke="#ddd" stroke-width="6"/><rect x="85" y="125" width="280" height="370" rx="34" fill="#fff" stroke="#0b0b0b" stroke-width="8"/><rect x="535" y="125" width="280" height="370" rx="34" fill="#fff" stroke="#0b0b0b" stroke-width="8"/><path class="f" d="M165 245c0-55 42-100 95-100s95 45 95 100v105H165z"/><circle cx="260" cy="242" r="58" class="w"/><path class="s" d="M238 238q18 18 42 0"/><path class="f" d="M620 240c0-58 44-105 100-105s100 47 100 105v130H620z"/><circle cx="720" cy="238" r="60" class="w"/><path class="s" d="M695 234q22 20 48 0"/><rect x="145" y="395" width="170" height="55" rx="18" fill="#f4f4f4" stroke="#0b0b0b" stroke-width="5"/><rect x="585" y="392" width="190" height="55" rx="18" fill="#f4f4f4" stroke="#0b0b0b" stroke-width="5"/><path class="s" d="M420 260h60M460 230l35 30-35 30"/><text x="310" y="565" class="t">PLAN BY TEXT</text></svg>