<svg xmlns="http://www.w3.org/2000/svg" viewBox="0 0 900 560" role="img" aria-label="Cartoon model applying online at a laptop">
<rect width="900" height="560" fill="#fff"/>
<ellipse cx="450" cy="500" rx="300" ry="26" fill="#ecebea"/>
<!-- laptop -->
<rect x="380" y="285" width="310" height="175" rx="16" fill="#fff" stroke="#111" stroke-width="12"/>
<rect x="405" y="315" width="260" height="75" rx="10" fill="#f5f5f5" stroke="#111" stroke-width="7"/>
<rect x="405" y="410" width="260" height="28" rx="7" fill="#e21b1b"/>
<line x1="345" y1="465" x2="720" y2="465" stroke="#111" stroke-width="13" stroke-linecap="round"/>
<!-- model -->
<path d="M285 127c63-13 123 33 128 97 4 54-27 86-58 111-36 29-53 77-47 126H178c-4-54 10-109 37-150 24-36 15-62 16-99 1-42 20-75 54-85z" fill="#111"/>
<path d="M236 206c9-41 52-60 100-46 39 12 59 49 45 91-12 36-48 59-86 54-40-6-66-41-59-99z" fill="#fff"/>
<path d="M300 218c6 13 16 20 29 20 14 0 25-8 31-20" fill="none" stroke="#111" stroke-width="12" stroke-linecap="round"/>
<path d="M224 300c-65 45-77 110-57 165" fill="none" stroke="#111" stroke-width="24" stroke-linecap="round"/>
<path d="M360 318c28 24 51 54 63 94" fill="none" stroke="#111" stroke-width="24" stroke-linecap="round"/>
<path d="M174 461h185" stroke="#111" stroke-width="38" stroke-linecap="round"/>
<path d="M610 250l24-30M638 272l36-6M612 294l25 26" stroke="#c79d67" stroke-width="11" stroke-linecap="round"/>
</svg>