<svg xmlns="http://www.w3.org/2000/svg" viewBox="0 0 900 620"><style>.s{stroke:#0b0b0b;stroke-width:8;stroke-linecap:round;stroke-linejoin:round}.f{fill:#0b0b0b}.w{fill:#fff}.r{fill:#e21b1b}.g{fill:#c4a071}.t{font:700 34px Arial, sans-serif;fill:#0b0b0b}</style><rect width="900" height="620" fill="#fff"/><path d="M210 360h520v145H210z" fill="#fff" stroke="#0b0b0b" stroke-width="8"/><path d="M210 360q120 70 260 60t260-60v145H210z" fill="#f7f7f7" stroke="#0b0b0b" stroke-width="5"/><path class="f" d="M470 210c0-58 44-105 100-105s100 47 100 105v145H470z"/><circle cx="570" cy="210" r="62" class="w"/><path class="s" d="M545 205q20 22 47 0"/><path class="f" d="M140 280c0-54 40-98 92-98s92 44 92 98v120H140z"/><circle cx="232" cy="275" r="55" class="w"/><path class="s" d="M210 270q18 18 42 0"/><rect x="95" y="370" width="140" height="82" rx="18" class="f"/><circle cx="238" cy="411" r="42" class="w"/><circle cx="238" cy="411" r="23" class="f"/><path class="s" d="M165 455v80M120 535h90M195 535h90"/><path class="r" d="M336 340h45v45h-45z"/><text x="285" y="565" class="t">SETUP & CREATE</text></svg>