<svg xmlns="http://www.w3.org/2000/svg" viewBox="0 0 900 620"><style>.s{stroke:#0b0b0b;stroke-width:8;stroke-linecap:round;stroke-linejoin:round}.f{fill:#0b0b0b}.w{fill:#fff}.r{fill:#e21b1b}.g{fill:#c4a071}.t{font:700 34px Arial, sans-serif;fill:#0b0b0b}</style><rect width="900" height="620" fill="#fff"/><ellipse cx="455" cy="552" rx="310" ry="22" fill="#eee"/><path class="f" d="M190 250c0-68 52-123 118-123s118 55 118 123v175H190z"/><circle cx="308" cy="246" r="70" class="w"/><path class="s" d="M280 243q26 24 58 0"/><path class="f" d="M500 230c0-76 58-137 130-137s130 61 130 137v210H500z"/><circle cx="630" cy="228" r="75" class="w"/><path class="s" d="M600 225q28 26 65 0"/><circle cx="455" cy="350" r="88" fill="#fff" stroke="#0b0b0b" stroke-width="8"/><text x="420" y="368" class="t">%</text><path class="s" d="M350 430q105 76 220 0"/><circle cx="455" cy="350" r="112" stroke="#c4a071" stroke-width="15" fill="none" stroke-dasharray="20 18"/><text x="245" y="540" class="t">SHARED PROFIT POOL</text></svg>